<?xml version="1.0" standalone="no"?>
<!DOCTYPE svg PUBLIC "-//W3C//DTD SVG 20010904//EN"
 "http://www.w3.org/TR/2001/REC-SVG-20010904/DTD/svg10.dtd">
<svg version="1.0" xmlns="http://www.w3.org/2000/svg"
 width="146.000000pt" height="146.000000pt" viewBox="0 0 146.000000 146.000000"
 preserveAspectRatio="xMidYMid meet">
<metadata>
Created by potrace 1.11, written by Peter Selinger 2001-2013
</metadata>
<g transform="translate(0.000000,146.000000) scale(0.100000,-0.100000)"
fill="#000000" stroke="none">
<path d="M215 1400 c-16 -16 -34 -30 -39 -30 -8 0 -11 -108 -11 -344 0 -328 1
-344 18 -329 15 15 17 44 17 338 l0 322 23 21 c23 22 24 22 508 22 l485 0 27
-28 27 -28 0 -315 c0 -288 2 -317 18 -332 16 -15 17 1 17 329 0 236 -3 344
-11 344 -5 0 -23 14 -39 30 l-29 30 -491 0 -491 0 -29 -30z"/>
<path d="M177 662 c-16 -18 -24 -82 -11 -95 3 -3 7 -117 9 -253 l3 -248 32
-29 c28 -25 37 -28 93 -25 l62 3 3 125 3 125 46 47 c36 37 55 48 78 48 45 0
65 19 67 62 1 31 11 47 70 105 63 62 68 71 68 110 l0 43 -253 0 c-233 0 -255
-1 -270 -18z m66 -38 c11 -11 -5 -34 -24 -34 -12 0 -19 7 -19 20 0 19 28 28
43 14z m417 -7 c0 -7 -27 -39 -60 -72 -55 -54 -63 -59 -99 -56 -33 2 -42 -2
-57 -23 -10 -17 -14 -37 -11 -54 5 -25 -2 -37 -54 -88 l-59 -58 0 -113 0 -113
-32 0 c-17 0 -40 7 -50 17 -16 15 -18 36 -18 247 l0 232 29 17 c18 10 32 29
36 47 l7 30 184 0 c143 0 184 -3 184 -13z m-143 -183 c9 -23 -13 -40 -32 -24
-12 10 -13 16 -4 26 15 18 28 18 36 -2z"/>
<path d="M770 637 c0 -39 5 -48 70 -112 53 -53 68 -74 64 -90 -8 -33 31 -75
70 -75 25 0 42 -11 81 -50 l49 -50 0 -122 1 -123 62 -3 c56 -3 65 0 95 27 l33
29 6 289 c5 246 3 291 -9 306 -14 15 -39 17 -269 17 l-253 0 0 -43z m414 -22
c-8 -20 20 -62 46 -70 19 -6 20 -14 20 -237 0 -259 -2 -268 -67 -268 l-33 0 0
113 0 113 -59 58 c-51 50 -59 63 -54 86 10 53 -36 97 -83 80 -17 -7 -32 2 -83
54 -33 34 -61 67 -61 74 0 9 47 12 190 12 165 0 189 -2 184 -15z m91 -5 c0 -8
-10 -16 -22 -18 -18 -3 -23 2 -23 18 0 16 5 21 23 18 12 -2 22 -10 22 -18z
m-291 -166 c21 -8 20 -30 -1 -38 -21 -8 -38 8 -30 28 7 18 9 18 31 10z"/>
<path d="M597 402 l-137 -137 0 -128 c0 -99 3 -128 13 -125 8 3 13 40 15 129
l3 124 117 118 c64 64 121 117 127 117 6 0 63 -53 127 -117 l117 -118 3 -124
c2 -89 7 -126 16 -129 9 -3 12 26 12 125 l0 128 -138 138 -137 137 -138 -138z"/>
<path d="M675 360 c-35 -35 -57 -50 -76 -50 -68 0 -99 -82 -46 -124 25 -20 27
-27 27 -99 0 -70 2 -77 20 -77 18 0 20 7 20 85 0 47 4 85 9 85 15 0 33 57 26
80 -6 18 2 32 36 66 l43 44 43 -42 c37 -36 42 -46 37 -73 -4 -22 0 -38 15 -57
17 -22 21 -40 21 -107 0 -74 2 -81 20 -81 18 0 20 7 20 77 0 72 2 79 27 99 51
41 19 133 -43 121 -17 -3 -36 9 -75 50 -30 29 -58 53 -64 53 -6 0 -33 -22 -60
-50z m-59 -111 c10 -17 -23 -46 -37 -32 -7 7 -9 19 -6 27 7 18 33 21 43 5z
m284 -9 c0 -13 -7 -20 -18 -20 -24 0 -32 8 -25 26 8 22 43 17 43 -6z"/>
<path d="M726 273 c-3 -3 -6 -64 -6 -135 0 -107 2 -128 15 -128 13 0 15 21 15
129 0 118 -6 152 -24 134z"/>
</g>
</svg>
